<?xml version="1.0" encoding="UTF-8"?>
<mxfile host="app.diagrams.net" agent="Mozilla/5.0 (Windows NT 10.0; Win64; x64) AppleWebKit/537.36 (KHTML, like Gecko) Chrome/133.0.0.0 Safari/537.36" version="26.0.16">
  <diagram name="Page-1" id="wBV1jC8VnSYo8uCe2H2V">
    <mxGraphModel dx="1562" dy="818" grid="1" gridSize="10" guides="1" tooltips="1" connect="1" arrows="1" fold="1" page="1" pageScale="1" pageWidth="850" pageHeight="1100" math="0" shadow="0">
      <root>
        <mxCell id="0" />
        <mxCell id="1" parent="0" />
        <mxCell id="xhRBa2p3k85Wy27jv4Y0-1" value="Entity" style="swimlane;fontStyle=1;align=center;verticalAlign=top;childLayout=stackLayout;horizontal=1;startSize=26;horizontalStack=0;resizeParent=1;resizeParentMax=0;resizeLast=0;collapsible=1;marginBottom=0;whiteSpace=wrap;html=1;" vertex="1" parent="1">
          <mxGeometry x="260" y="40" width="160" height="154" as="geometry" />
        </mxCell>
        <mxCell id="xhRBa2p3k85Wy27jv4Y0-2" value="+int x_pos&lt;br&gt;+int y_pos&lt;br&gt;+string name&lt;br&gt;+List&amp;lt;2D_Sprite&amp;gt; sprites&lt;br&gt;+2D_Collider collider&lt;div&gt;&lt;br/&gt;&lt;/div&gt;" style="text;strokeColor=none;fillColor=none;align=left;verticalAlign=top;spacingLeft=4;spacingRight=4;overflow=hidden;rotatable=0;points=[[0,0.5],[1,0.5]];portConstraint=eastwest;whiteSpace=wrap;html=1;" vertex="1" parent="xhRBa2p3k85Wy27jv4Y0-1">
          <mxGeometry y="26" width="160" height="94" as="geometry" />
        </mxCell>
        <mxCell id="xhRBa2p3k85Wy27jv4Y0-3" value="" style="line;strokeWidth=1;fillColor=none;align=left;verticalAlign=middle;spacingTop=-1;spacingLeft=3;spacingRight=3;rotatable=0;labelPosition=right;points=[];portConstraint=eastwest;strokeColor=inherit;" vertex="1" parent="xhRBa2p3k85Wy27jv4Y0-1">
          <mxGeometry y="120" width="160" height="8" as="geometry" />
        </mxCell>
        <mxCell id="xhRBa2p3k85Wy27jv4Y0-4" value="+onInteract()" style="text;strokeColor=none;fillColor=none;align=left;verticalAlign=top;spacingLeft=4;spacingRight=4;overflow=hidden;rotatable=0;points=[[0,0.5],[1,0.5]];portConstraint=eastwest;whiteSpace=wrap;html=1;" vertex="1" parent="xhRBa2p3k85Wy27jv4Y0-1">
          <mxGeometry y="128" width="160" height="26" as="geometry" />
        </mxCell>
        <mxCell id="xhRBa2p3k85Wy27jv4Y0-5" value="Player" style="swimlane;fontStyle=1;align=center;verticalAlign=top;childLayout=stackLayout;horizontal=1;startSize=26;horizontalStack=0;resizeParent=1;resizeParentMax=0;resizeLast=0;collapsible=1;marginBottom=0;whiteSpace=wrap;html=1;" vertex="1" parent="1">
          <mxGeometry x="40" y="360" width="120" height="160" as="geometry" />
        </mxCell>
        <mxCell id="xhRBa2p3k85Wy27jv4Y0-6" value="+double health" style="text;strokeColor=none;fillColor=none;align=left;verticalAlign=top;spacingLeft=4;spacingRight=4;overflow=hidden;rotatable=0;points=[[0,0.5],[1,0.5]];portConstraint=eastwest;whiteSpace=wrap;html=1;" vertex="1" parent="xhRBa2p3k85Wy27jv4Y0-5">
          <mxGeometry y="26" width="120" height="26" as="geometry" />
        </mxCell>
        <mxCell id="xhRBa2p3k85Wy27jv4Y0-7" value="" style="line;strokeWidth=1;fillColor=none;align=left;verticalAlign=middle;spacingTop=-1;spacingLeft=3;spacingRight=3;rotatable=0;labelPosition=right;points=[];portConstraint=eastwest;strokeColor=inherit;" vertex="1" parent="xhRBa2p3k85Wy27jv4Y0-5">
          <mxGeometry y="52" width="120" height="8" as="geometry" />
        </mxCell>
        <mxCell id="xhRBa2p3k85Wy27jv4Y0-8" value="-up()&lt;br&gt;-down()&lt;br&gt;-left()&lt;br&gt;-right() &lt;br&gt;+interact()&lt;br&gt;-takeDamage()&lt;div&gt;&lt;br&gt;&lt;/div&gt;" style="text;strokeColor=none;fillColor=none;align=left;verticalAlign=top;spacingLeft=4;spacingRight=4;overflow=hidden;rotatable=0;points=[[0,0.5],[1,0.5]];portConstraint=eastwest;whiteSpace=wrap;html=1;" vertex="1" parent="xhRBa2p3k85Wy27jv4Y0-5">
          <mxGeometry y="60" width="120" height="100" as="geometry" />
        </mxCell>
        <mxCell id="xhRBa2p3k85Wy27jv4Y0-9" value="NPC" style="swimlane;fontStyle=1;align=center;verticalAlign=top;childLayout=stackLayout;horizontal=1;startSize=26;horizontalStack=0;resizeParent=1;resizeParentMax=0;resizeLast=0;collapsible=1;marginBottom=0;whiteSpace=wrap;html=1;" vertex="1" parent="1">
          <mxGeometry x="200" y="360" width="120" height="126" as="geometry" />
        </mxCell>
        <mxCell id="xhRBa2p3k85Wy27jv4Y0-10" value="intNode currentState&lt;br&gt;bool isHostile&lt;br&gt;intTree interactions&lt;div&gt;&lt;br/&gt;&lt;/div&gt;" style="text;strokeColor=none;fillColor=none;align=left;verticalAlign=top;spacingLeft=4;spacingRight=4;overflow=hidden;rotatable=0;points=[[0,0.5],[1,0.5]];portConstraint=eastwest;whiteSpace=wrap;html=1;" vertex="1" parent="xhRBa2p3k85Wy27jv4Y0-9">
          <mxGeometry y="26" width="120" height="60" as="geometry" />
        </mxCell>
        <mxCell id="xhRBa2p3k85Wy27jv4Y0-11" value="" style="line;strokeWidth=1;fillColor=none;align=left;verticalAlign=middle;spacingTop=-1;spacingLeft=3;spacingRight=3;rotatable=0;labelPosition=right;points=[];portConstraint=eastwest;strokeColor=inherit;" vertex="1" parent="xhRBa2p3k85Wy27jv4Y0-9">
          <mxGeometry y="86" width="120" height="8" as="geometry" />
        </mxCell>
        <mxCell id="xhRBa2p3k85Wy27jv4Y0-12" value="startDialogue()" style="text;strokeColor=none;fillColor=none;align=left;verticalAlign=top;spacingLeft=4;spacingRight=4;overflow=hidden;rotatable=0;points=[[0,0.5],[1,0.5]];portConstraint=eastwest;whiteSpace=wrap;html=1;" vertex="1" parent="xhRBa2p3k85Wy27jv4Y0-9">
          <mxGeometry y="94" width="120" height="32" as="geometry" />
        </mxCell>
        <mxCell id="xhRBa2p3k85Wy27jv4Y0-13" value="Door" style="swimlane;fontStyle=1;align=center;verticalAlign=top;childLayout=stackLayout;horizontal=1;startSize=26;horizontalStack=0;resizeParent=1;resizeParentMax=0;resizeLast=0;collapsible=1;marginBottom=0;whiteSpace=wrap;html=1;" vertex="1" parent="1">
          <mxGeometry x="360" y="360" width="120" height="90" as="geometry" />
        </mxCell>
        <mxCell id="xhRBa2p3k85Wy27jv4Y0-14" value="+bool isOpen&lt;br&gt;+bool isLocked&lt;div&gt;&lt;br&gt;&lt;/div&gt;" style="text;strokeColor=none;fillColor=none;align=left;verticalAlign=top;spacingLeft=4;spacingRight=4;overflow=hidden;rotatable=0;points=[[0,0.5],[1,0.5]];portConstraint=eastwest;whiteSpace=wrap;html=1;" vertex="1" parent="xhRBa2p3k85Wy27jv4Y0-13">
          <mxGeometry y="26" width="120" height="34" as="geometry" />
        </mxCell>
        <mxCell id="xhRBa2p3k85Wy27jv4Y0-15" value="" style="line;strokeWidth=1;fillColor=none;align=left;verticalAlign=middle;spacingTop=-1;spacingLeft=3;spacingRight=3;rotatable=0;labelPosition=right;points=[];portConstraint=eastwest;strokeColor=inherit;" vertex="1" parent="xhRBa2p3k85Wy27jv4Y0-13">
          <mxGeometry y="60" width="120" height="8" as="geometry" />
        </mxCell>
        <mxCell id="xhRBa2p3k85Wy27jv4Y0-16" value="+entered()" style="text;strokeColor=none;fillColor=none;align=left;verticalAlign=top;spacingLeft=4;spacingRight=4;overflow=hidden;rotatable=0;points=[[0,0.5],[1,0.5]];portConstraint=eastwest;whiteSpace=wrap;html=1;" vertex="1" parent="xhRBa2p3k85Wy27jv4Y0-13">
          <mxGeometry y="68" width="120" height="22" as="geometry" />
        </mxCell>
        <mxCell id="xhRBa2p3k85Wy27jv4Y0-17" value="Lever" style="swimlane;fontStyle=1;align=center;verticalAlign=top;childLayout=stackLayout;horizontal=1;startSize=26;horizontalStack=0;resizeParent=1;resizeParentMax=0;resizeLast=0;collapsible=1;marginBottom=0;whiteSpace=wrap;html=1;" vertex="1" parent="1">
          <mxGeometry x="520" y="360" width="150" height="80" as="geometry" />
        </mxCell>
        <mxCell id="xhRBa2p3k85Wy27jv4Y0-18" value="+bool isPulled&lt;div&gt;&lt;br&gt;&lt;/div&gt;" style="text;strokeColor=none;fillColor=none;align=left;verticalAlign=top;spacingLeft=4;spacingRight=4;overflow=hidden;rotatable=0;points=[[0,0.5],[1,0.5]];portConstraint=eastwest;whiteSpace=wrap;html=1;" vertex="1" parent="xhRBa2p3k85Wy27jv4Y0-17">
          <mxGeometry y="26" width="150" height="24" as="geometry" />
        </mxCell>
        <mxCell id="xhRBa2p3k85Wy27jv4Y0-19" value="" style="line;strokeWidth=1;fillColor=none;align=left;verticalAlign=middle;spacingTop=-1;spacingLeft=3;spacingRight=3;rotatable=0;labelPosition=right;points=[];portConstraint=eastwest;strokeColor=inherit;" vertex="1" parent="xhRBa2p3k85Wy27jv4Y0-17">
          <mxGeometry y="50" width="150" height="8" as="geometry" />
        </mxCell>
        <mxCell id="xhRBa2p3k85Wy27jv4Y0-20" value="+toggle()" style="text;strokeColor=none;fillColor=none;align=left;verticalAlign=top;spacingLeft=4;spacingRight=4;overflow=hidden;rotatable=0;points=[[0,0.5],[1,0.5]];portConstraint=eastwest;whiteSpace=wrap;html=1;" vertex="1" parent="xhRBa2p3k85Wy27jv4Y0-17">
          <mxGeometry y="58" width="150" height="22" as="geometry" />
        </mxCell>
        <mxCell id="xhRBa2p3k85Wy27jv4Y0-21" value="" style="endArrow=block;html=1;rounded=0;exitX=0.5;exitY=0;exitDx=0;exitDy=0;entryX=0.5;entryY=1;entryDx=0;entryDy=0;endFill=0;edgeStyle=orthogonalEdgeStyle;" edge="1" parent="1" source="xhRBa2p3k85Wy27jv4Y0-13" target="xhRBa2p3k85Wy27jv4Y0-1">
          <mxGeometry width="50" height="50" relative="1" as="geometry">
            <mxPoint x="290" y="290" as="sourcePoint" />
            <mxPoint x="260" y="340" as="targetPoint" />
            <Array as="points">
              <mxPoint x="420" y="280" />
              <mxPoint x="340" y="280" />
            </Array>
          </mxGeometry>
        </mxCell>
        <mxCell id="xhRBa2p3k85Wy27jv4Y0-22" value="" style="endArrow=none;html=1;rounded=0;entryX=0.5;entryY=0;entryDx=0;entryDy=0;edgeStyle=orthogonalEdgeStyle;" edge="1" parent="1" target="xhRBa2p3k85Wy27jv4Y0-5">
          <mxGeometry width="50" height="50" relative="1" as="geometry">
            <mxPoint x="340" y="271" as="sourcePoint" />
            <mxPoint x="260" y="340" as="targetPoint" />
            <Array as="points">
              <mxPoint x="340" y="280" />
              <mxPoint x="100" y="280" />
            </Array>
          </mxGeometry>
        </mxCell>
        <mxCell id="xhRBa2p3k85Wy27jv4Y0-23" value="" style="endArrow=none;html=1;rounded=0;entryX=0.5;entryY=0;entryDx=0;entryDy=0;" edge="1" parent="1" target="xhRBa2p3k85Wy27jv4Y0-9">
          <mxGeometry width="50" height="50" relative="1" as="geometry">
            <mxPoint x="260" y="280" as="sourcePoint" />
            <mxPoint x="260" y="340" as="targetPoint" />
          </mxGeometry>
        </mxCell>
        <mxCell id="xhRBa2p3k85Wy27jv4Y0-24" value="" style="endArrow=none;html=1;rounded=0;exitX=0.5;exitY=0;exitDx=0;exitDy=0;edgeStyle=orthogonalEdgeStyle;" edge="1" parent="1" source="xhRBa2p3k85Wy27jv4Y0-17">
          <mxGeometry width="50" height="50" relative="1" as="geometry">
            <mxPoint x="210" y="390" as="sourcePoint" />
            <mxPoint x="420" y="280" as="targetPoint" />
            <Array as="points">
              <mxPoint x="595" y="280" />
            </Array>
          </mxGeometry>
        </mxCell>
        <mxCell id="xhRBa2p3k85Wy27jv4Y0-25" value="Inventory" style="swimlane;fontStyle=1;align=center;verticalAlign=top;childLayout=stackLayout;horizontal=1;startSize=26;horizontalStack=0;resizeParent=1;resizeParentMax=0;resizeLast=0;collapsible=1;marginBottom=0;whiteSpace=wrap;html=1;" vertex="1" parent="1">
          <mxGeometry x="20" y="580" width="160" height="104" as="geometry" />
        </mxCell>
        <mxCell id="xhRBa2p3k85Wy27jv4Y0-26" value="+List&amp;lt;Item&amp;gt; items&lt;div&gt;+int capacity&lt;/div&gt;" style="text;strokeColor=none;fillColor=none;align=left;verticalAlign=top;spacingLeft=4;spacingRight=4;overflow=hidden;rotatable=0;points=[[0,0.5],[1,0.5]];portConstraint=eastwest;whiteSpace=wrap;html=1;" vertex="1" parent="xhRBa2p3k85Wy27jv4Y0-25">
          <mxGeometry y="26" width="160" height="32" as="geometry" />
        </mxCell>
        <mxCell id="xhRBa2p3k85Wy27jv4Y0-27" value="" style="line;strokeWidth=1;fillColor=none;align=left;verticalAlign=middle;spacingTop=-1;spacingLeft=3;spacingRight=3;rotatable=0;labelPosition=right;points=[];portConstraint=eastwest;strokeColor=inherit;" vertex="1" parent="xhRBa2p3k85Wy27jv4Y0-25">
          <mxGeometry y="58" width="160" height="8" as="geometry" />
        </mxCell>
        <mxCell id="xhRBa2p3k85Wy27jv4Y0-28" value="+addItem()&lt;div&gt;+removeItem()&lt;/div&gt;" style="text;strokeColor=none;fillColor=none;align=left;verticalAlign=top;spacingLeft=4;spacingRight=4;overflow=hidden;rotatable=0;points=[[0,0.5],[1,0.5]];portConstraint=eastwest;whiteSpace=wrap;html=1;" vertex="1" parent="xhRBa2p3k85Wy27jv4Y0-25">
          <mxGeometry y="66" width="160" height="38" as="geometry" />
        </mxCell>
        <mxCell id="xhRBa2p3k85Wy27jv4Y0-29" style="edgeStyle=orthogonalEdgeStyle;rounded=0;orthogonalLoop=1;jettySize=auto;html=1;exitX=0.25;exitY=0;exitDx=0;exitDy=0;entryX=0.417;entryY=0.996;entryDx=0;entryDy=0;entryPerimeter=0;endArrow=block;endFill=0;" edge="1" parent="1" source="xhRBa2p3k85Wy27jv4Y0-25" target="xhRBa2p3k85Wy27jv4Y0-8">
          <mxGeometry relative="1" as="geometry" />
        </mxCell>
        <mxCell id="xhRBa2p3k85Wy27jv4Y0-38" value="1" style="edgeLabel;html=1;align=center;verticalAlign=middle;resizable=0;points=[];" vertex="1" connectable="0" parent="xhRBa2p3k85Wy27jv4Y0-29">
          <mxGeometry x="0.5971" y="7" relative="1" as="geometry">
            <mxPoint as="offset" />
          </mxGeometry>
        </mxCell>
        <mxCell id="xhRBa2p3k85Wy27jv4Y0-39" value="1" style="edgeLabel;html=1;align=center;verticalAlign=middle;resizable=0;points=[];" vertex="1" connectable="0" parent="xhRBa2p3k85Wy27jv4Y0-29">
          <mxGeometry x="-0.6195" y="-1" relative="1" as="geometry">
            <mxPoint x="-11" y="7" as="offset" />
          </mxGeometry>
        </mxCell>
        <mxCell id="xhRBa2p3k85Wy27jv4Y0-30" value="Quest" style="swimlane;fontStyle=1;align=center;verticalAlign=top;childLayout=stackLayout;horizontal=1;startSize=26;horizontalStack=0;resizeParent=1;resizeParentMax=0;resizeLast=0;collapsible=1;marginBottom=0;whiteSpace=wrap;html=1;" vertex="1" parent="1">
          <mxGeometry x="310" y="550" width="160" height="108" as="geometry" />
        </mxCell>
        <mxCell id="xhRBa2p3k85Wy27jv4Y0-31" value="+string title&lt;div&gt;+List&amp;lt;Objective&amp;gt; objectives&lt;/div&gt;&lt;div&gt;+string description&lt;/div&gt;" style="text;strokeColor=none;fillColor=none;align=left;verticalAlign=top;spacingLeft=4;spacingRight=4;overflow=hidden;rotatable=0;points=[[0,0.5],[1,0.5]];portConstraint=eastwest;whiteSpace=wrap;html=1;" vertex="1" parent="xhRBa2p3k85Wy27jv4Y0-30">
          <mxGeometry y="26" width="160" height="48" as="geometry" />
        </mxCell>
        <mxCell id="xhRBa2p3k85Wy27jv4Y0-32" value="" style="line;strokeWidth=1;fillColor=none;align=left;verticalAlign=middle;spacingTop=-1;spacingLeft=3;spacingRight=3;rotatable=0;labelPosition=right;points=[];portConstraint=eastwest;strokeColor=inherit;" vertex="1" parent="xhRBa2p3k85Wy27jv4Y0-30">
          <mxGeometry y="74" width="160" height="8" as="geometry" />
        </mxCell>
        <mxCell id="xhRBa2p3k85Wy27jv4Y0-33" value="+checkCompletion" style="text;strokeColor=none;fillColor=none;align=left;verticalAlign=top;spacingLeft=4;spacingRight=4;overflow=hidden;rotatable=0;points=[[0,0.5],[1,0.5]];portConstraint=eastwest;whiteSpace=wrap;html=1;" vertex="1" parent="xhRBa2p3k85Wy27jv4Y0-30">
          <mxGeometry y="82" width="160" height="26" as="geometry" />
        </mxCell>
        <mxCell id="xhRBa2p3k85Wy27jv4Y0-34" value="QuestManager" style="swimlane;fontStyle=1;align=center;verticalAlign=top;childLayout=stackLayout;horizontal=1;startSize=26;horizontalStack=0;resizeParent=1;resizeParentMax=0;resizeLast=0;collapsible=1;marginBottom=0;whiteSpace=wrap;html=1;" vertex="1" parent="1">
          <mxGeometry x="540" y="450" width="160" height="138" as="geometry" />
        </mxCell>
        <mxCell id="xhRBa2p3k85Wy27jv4Y0-35" value="+Quest currentQuest&lt;div&gt;+List&amp;lt;Quest&amp;gt;questTransitions&lt;/div&gt;&lt;div&gt;+Quest nextQuest&lt;/div&gt;" style="text;strokeColor=none;fillColor=none;align=left;verticalAlign=top;spacingLeft=4;spacingRight=4;overflow=hidden;rotatable=0;points=[[0,0.5],[1,0.5]];portConstraint=eastwest;whiteSpace=wrap;html=1;" vertex="1" parent="xhRBa2p3k85Wy27jv4Y0-34">
          <mxGeometry y="26" width="160" height="52" as="geometry" />
        </mxCell>
        <mxCell id="xhRBa2p3k85Wy27jv4Y0-36" value="" style="line;strokeWidth=1;fillColor=none;align=left;verticalAlign=middle;spacingTop=-1;spacingLeft=3;spacingRight=3;rotatable=0;labelPosition=right;points=[];portConstraint=eastwest;strokeColor=inherit;" vertex="1" parent="xhRBa2p3k85Wy27jv4Y0-34">
          <mxGeometry y="78" width="160" height="8" as="geometry" />
        </mxCell>
        <mxCell id="xhRBa2p3k85Wy27jv4Y0-37" value="+startQuest()&lt;div&gt;+setNextQuest()&lt;/div&gt;&lt;div&gt;+completeQuest()&lt;/div&gt;" style="text;strokeColor=none;fillColor=none;align=left;verticalAlign=top;spacingLeft=4;spacingRight=4;overflow=hidden;rotatable=0;points=[[0,0.5],[1,0.5]];portConstraint=eastwest;whiteSpace=wrap;html=1;" vertex="1" parent="xhRBa2p3k85Wy27jv4Y0-34">
          <mxGeometry y="86" width="160" height="52" as="geometry" />
        </mxCell>
        <mxCell id="xhRBa2p3k85Wy27jv4Y0-42" style="edgeStyle=orthogonalEdgeStyle;rounded=0;orthogonalLoop=1;jettySize=auto;html=1;exitX=1.003;exitY=0.308;exitDx=0;exitDy=0;entryX=0.308;entryY=1.069;entryDx=0;entryDy=0;entryPerimeter=0;endArrow=block;endFill=0;exitPerimeter=0;" edge="1" parent="1" source="xhRBa2p3k85Wy27jv4Y0-31" target="xhRBa2p3k85Wy27jv4Y0-37">
          <mxGeometry relative="1" as="geometry">
            <Array as="points">
              <mxPoint x="510" y="617" />
              <mxPoint x="510" y="610" />
              <mxPoint x="589" y="610" />
            </Array>
          </mxGeometry>
        </mxCell>
        <mxCell id="xhRBa2p3k85Wy27jv4Y0-43" value="*" style="edgeLabel;html=1;align=center;verticalAlign=middle;resizable=0;points=[];" vertex="1" connectable="0" parent="xhRBa2p3k85Wy27jv4Y0-42">
          <mxGeometry x="-0.7388" y="-3" relative="1" as="geometry">
            <mxPoint x="13" y="17" as="offset" />
          </mxGeometry>
        </mxCell>
        <mxCell id="xhRBa2p3k85Wy27jv4Y0-44" value="1" style="edgeLabel;html=1;align=center;verticalAlign=middle;resizable=0;points=[];" vertex="1" connectable="0" parent="xhRBa2p3k85Wy27jv4Y0-42">
          <mxGeometry x="0.7969" relative="1" as="geometry">
            <mxPoint x="11" y="-7" as="offset" />
          </mxGeometry>
        </mxCell>
        <mxCell id="xhRBa2p3k85Wy27jv4Y0-49" value="Objective" style="swimlane;fontStyle=1;align=center;verticalAlign=top;childLayout=stackLayout;horizontal=1;startSize=26;horizontalStack=0;resizeParent=1;resizeParentMax=0;resizeLast=0;collapsible=1;marginBottom=0;whiteSpace=wrap;html=1;" vertex="1" parent="1">
          <mxGeometry x="290" y="720" width="160" height="114" as="geometry" />
        </mxCell>
        <mxCell id="xhRBa2p3k85Wy27jv4Y0-50" value="+string description&lt;div&gt;+bool isCompleted&lt;/div&gt;&lt;div&gt;+List&amp;lt;EventListener&amp;gt;triggers&lt;/div&gt;" style="text;strokeColor=none;fillColor=none;align=left;verticalAlign=top;spacingLeft=4;spacingRight=4;overflow=hidden;rotatable=0;points=[[0,0.5],[1,0.5]];portConstraint=eastwest;whiteSpace=wrap;html=1;" vertex="1" parent="xhRBa2p3k85Wy27jv4Y0-49">
          <mxGeometry y="26" width="160" height="54" as="geometry" />
        </mxCell>
        <mxCell id="xhRBa2p3k85Wy27jv4Y0-51" value="" style="line;strokeWidth=1;fillColor=none;align=left;verticalAlign=middle;spacingTop=-1;spacingLeft=3;spacingRight=3;rotatable=0;labelPosition=right;points=[];portConstraint=eastwest;strokeColor=inherit;" vertex="1" parent="xhRBa2p3k85Wy27jv4Y0-49">
          <mxGeometry y="80" width="160" height="8" as="geometry" />
        </mxCell>
        <mxCell id="xhRBa2p3k85Wy27jv4Y0-52" value="+onTrigger" style="text;strokeColor=none;fillColor=none;align=left;verticalAlign=top;spacingLeft=4;spacingRight=4;overflow=hidden;rotatable=0;points=[[0,0.5],[1,0.5]];portConstraint=eastwest;whiteSpace=wrap;html=1;" vertex="1" parent="xhRBa2p3k85Wy27jv4Y0-49">
          <mxGeometry y="88" width="160" height="26" as="geometry" />
        </mxCell>
        <mxCell id="xhRBa2p3k85Wy27jv4Y0-53" style="edgeStyle=orthogonalEdgeStyle;rounded=0;orthogonalLoop=1;jettySize=auto;html=1;exitX=0.5;exitY=0;exitDx=0;exitDy=0;entryX=0.52;entryY=1;entryDx=0;entryDy=0;entryPerimeter=0;endArrow=block;endFill=0;" edge="1" parent="1" source="xhRBa2p3k85Wy27jv4Y0-49" target="xhRBa2p3k85Wy27jv4Y0-33">
          <mxGeometry relative="1" as="geometry" />
        </mxCell>
        <mxCell id="xhRBa2p3k85Wy27jv4Y0-54" value="1" style="edgeLabel;html=1;align=center;verticalAlign=middle;resizable=0;points=[];" vertex="1" connectable="0" parent="xhRBa2p3k85Wy27jv4Y0-53">
          <mxGeometry x="0.626" relative="1" as="geometry">
            <mxPoint x="7" as="offset" />
          </mxGeometry>
        </mxCell>
        <mxCell id="xhRBa2p3k85Wy27jv4Y0-55" value="*" style="edgeLabel;html=1;align=center;verticalAlign=middle;resizable=0;points=[];" vertex="1" connectable="0" parent="xhRBa2p3k85Wy27jv4Y0-53">
          <mxGeometry x="-0.7857" y="1" relative="1" as="geometry">
            <mxPoint x="11" as="offset" />
          </mxGeometry>
        </mxCell>
        <mxCell id="xhRBa2p3k85Wy27jv4Y0-58" style="edgeStyle=orthogonalEdgeStyle;rounded=0;orthogonalLoop=1;jettySize=auto;html=1;exitX=0;exitY=0.5;exitDx=0;exitDy=0;entryX=0.643;entryY=1.025;entryDx=0;entryDy=0;entryPerimeter=0;endArrow=block;endFill=0;" edge="1" parent="1" source="xhRBa2p3k85Wy27jv4Y0-31" target="xhRBa2p3k85Wy27jv4Y0-12">
          <mxGeometry relative="1" as="geometry" />
        </mxCell>
        <mxCell id="xhRBa2p3k85Wy27jv4Y0-59" value="1" style="edgeLabel;html=1;align=center;verticalAlign=middle;resizable=0;points=[];" vertex="1" connectable="0" parent="xhRBa2p3k85Wy27jv4Y0-58">
          <mxGeometry x="0.8219" y="-2" relative="1" as="geometry">
            <mxPoint x="-9" y="2" as="offset" />
          </mxGeometry>
        </mxCell>
        <mxCell id="xhRBa2p3k85Wy27jv4Y0-60" value="*" style="edgeLabel;html=1;align=center;verticalAlign=middle;resizable=0;points=[];" vertex="1" connectable="0" parent="xhRBa2p3k85Wy27jv4Y0-58">
          <mxGeometry x="-0.8192" y="-1" relative="1" as="geometry">
            <mxPoint x="3" y="11" as="offset" />
          </mxGeometry>
        </mxCell>
      </root>
    </mxGraphModel>
  </diagram>
</mxfile>
